<svg width="21" height="18" viewBox="0 0 21 18" fill="none" xmlns="http://www.w3.org/2000/svg">
<path fill-rule="evenodd" clip-rule="evenodd" d="M1.50071 3C1.50071 2.58579 1.8365 2.25 2.25071 2.25H3.75071V0.75C3.75071 0.335786 4.0865 0 4.50071 0C4.91492 0 5.25071 0.335786 5.25071 0.75V2.25H6.75071C7.16492 2.25 7.50071 2.58579 7.50071 3C7.50071 3.41421 7.16492 3.75 6.75071 3.75H5.25071V5.25C5.25071 5.66421 4.91492 6 4.50071 6C4.0865 6 3.75071 5.66421 3.75071 5.25V3.75H2.25071C1.8365 3.75 1.50071 3.41421 1.50071 3ZM14.2507 15H13.5007V14.25C13.5007 13.8358 13.1649 13.5 12.7507 13.5C12.3365 13.5 12.0007 13.8358 12.0007 14.25V15H11.2507C10.8365 15 10.5007 15.3358 10.5007 15.75C10.5007 16.1642 10.8365 16.5 11.2507 16.5H12.0007V17.25C12.0007 17.6642 12.3365 18 12.7507 18C13.1649 18 13.5007 17.6642 13.5007 17.25V16.5H14.2507C14.6649 16.5 15.0007 16.1642 15.0007 15.75C15.0007 15.3358 14.6649 15 14.2507 15ZM19.5007 10.5H18.0007V9C18.0007 8.58579 17.6649 8.25 17.2507 8.25C16.8365 8.25 16.5007 8.58579 16.5007 9V10.5H15.0007C14.5865 10.5 14.2507 10.8358 14.2507 11.25C14.2507 11.6642 14.5865 12 15.0007 12H16.5007V13.5C16.5007 13.9142 16.8365 14.25 17.2507 14.25C17.6649 14.25 18.0007 13.9142 18.0007 13.5V12H19.5007C19.9149 12 20.2507 11.6642 20.2507 11.25C20.2507 10.8358 19.9149 10.5 19.5007 10.5ZM17.561 4.5L4.50071 17.5603C3.915 18.1456 2.96579 18.1456 2.38008 17.5603L0.43946 15.6216C0.158081 15.3402 -1.43051e-06 14.9587 -1.43051e-06 14.5608C-1.43051e-06 14.1629 0.158081 13.7813 0.43946 13.5L13.5007 0.439687C13.782 0.158309 14.1636 0.000226498 14.5615 0.000226498C14.9594 0.000226498 15.341 0.158309 15.6223 0.439687L17.561 2.37844C17.8424 2.65975 18.0005 3.04133 18.0005 3.43922C18.0005 3.8371 17.8424 4.21869 17.561 4.5ZM12.4395 7.5L10.5007 5.56031L1.50071 14.5603L3.43946 16.5L12.4395 7.5ZM16.5007 3.43969L14.561 1.5L11.561 4.5L13.5007 6.43969L16.5007 3.43969Z" fill="white"/>
</svg>
