<svg width="20" height="17" viewBox="0 0 20 17" fill="none" xmlns="http://www.w3.org/2000/svg">
<path fill-rule="evenodd" clip-rule="evenodd" d="M18 0H1.5C0.671573 0 0 0.671573 0 1.5V15C0 15.8284 0.671573 16.5 1.5 16.5H18C18.8284 16.5 19.5 15.8284 19.5 15V1.5C19.5 0.671573 18.8284 0 18 0ZM18 1.5V11.1328L15.5559 8.68969C15.2746 8.40831 14.893 8.25023 14.4952 8.25023C14.0973 8.25023 13.7157 8.40831 13.4344 8.68969L11.5594 10.5647L7.43437 6.43969C6.84867 5.85436 5.89946 5.85436 5.31375 6.43969L1.5 10.2534V1.5H18ZM1.5 12.375L6.375 7.5L13.875 15H1.5V12.375ZM18 15H15.9966L12.6216 11.625L14.4966 9.75L18 13.2544V15ZM11.25 5.625C11.25 5.00368 11.7537 4.5 12.375 4.5C12.9963 4.5 13.5 5.00368 13.5 5.625C13.5 6.24632 12.9963 6.75 12.375 6.75C11.7537 6.75 11.25 6.24632 11.25 5.625Z" fill="white"/>
</svg>
