<svg width="24" height="16" viewBox="0 0 24 16" fill="none" xmlns="http://www.w3.org/2000/svg">
<path fill-rule="evenodd" clip-rule="evenodd" d="M10.789 10.3073C12.8529 8.93328 13.7737 6.36996 13.056 3.9967C12.3382 1.62343 10.1512 6.67572e-06 7.6718 6.67572e-06C5.19238 6.67572e-06 3.00537 1.62343 2.28764 3.9967C1.5699 6.36996 2.49073 8.93328 4.55462 10.3073C2.73633 10.9774 1.18346 12.2176 0.12774 13.8426C-0.0232657 14.067 -0.0417134 14.3554 0.0794624 14.5972C0.200638 14.8391 0.442659 14.9969 0.712834 15.0104C0.983008 15.0238 1.23947 14.8906 1.38399 14.662C2.76757 12.534 5.13357 11.2502 7.6718 11.2502C10.21 11.2502 12.576 12.534 13.9596 14.662C14.1885 15.0022 14.6482 15.0955 14.9916 14.8715C15.335 14.6475 15.4349 14.1892 15.2159 13.8426C14.1601 12.2176 12.6073 10.9774 10.789 10.3073ZM3.5468 5.62729C3.5468 3.34911 5.39363 1.50229 7.6718 1.50229C9.94998 1.50229 11.7968 3.34911 11.7968 5.62729C11.7968 7.90546 9.94998 9.75229 7.6718 9.75229C5.3947 9.74971 3.54939 7.90439 3.5468 5.62729ZM23.2474 14.8804C22.9005 15.1066 22.4359 15.0088 22.2096 14.662C20.8276 12.5326 18.4604 11.2489 15.9218 11.2523C15.5076 11.2523 15.1718 10.9165 15.1718 10.5023C15.1718 10.0881 15.5076 9.75229 15.9218 9.75229C17.5831 9.75072 19.0814 8.7527 19.7229 7.22027C20.3645 5.68783 20.0241 3.92008 18.8594 2.7354C17.6948 1.55072 15.9331 1.18034 14.3899 1.79573C14.1395 1.904 13.8499 1.8677 13.634 1.70093C13.418 1.53417 13.3096 1.26325 13.351 0.993539C13.3924 0.723824 13.577 0.49787 13.8331 0.403539C16.5077 -0.663144 19.556 0.462296 20.8958 3.01112C22.2356 5.55994 21.4342 8.70899 19.039 10.3073C20.8573 10.9774 22.4101 12.2176 23.4659 13.8426C23.6921 14.1895 23.5943 14.6541 23.2474 14.8804Z" fill="white"/>
</svg>
